<?xml version="1.0" standalone="no"?>
<!DOCTYPE svg PUBLIC "-//W3C//DTD SVG 20010904//EN"
 "http://www.w3.org/TR/2001/REC-SVG-20010904/DTD/svg10.dtd">
<svg version="1.0" xmlns="http://www.w3.org/2000/svg"
 width="400.000000pt" height="400.000000pt" viewBox="0 0 400.000000 400.000000"
 preserveAspectRatio="xMidYMid meet">
<metadata>
Created by potrace 1.11, written by Peter Selinger 2001-2013
</metadata>
<g transform="translate(0.000000,400.000000) scale(0.100000,-0.100000)"
fill="#000000" stroke="none">
<path d="M1358 3073 c7 -3 16 -2 19 1 4 3 -2 6 -13 5 -11 0 -14 -3 -6 -6z"/>
<path d="M1795 3070 c-16 -4 -55 -15 -85 -24 -30 -9 -68 -21 -85 -25 -16 -5
-58 -24 -92 -42 -33 -19 -81 -45 -105 -58 -23 -13 -45 -26 -48 -30 -3 -3 -42
-37 -87 -75 -46 -37 -83 -71 -83 -74 0 -4 -10 -18 -23 -32 -80 -89 -184 -271
-199 -349 -4 -24 -12 -47 -17 -50 -13 -9 -22 -73 -28 -195 -5 -102 6 -249 15
-198 2 14 10 22 23 22 13 0 19 -7 20 -22 1 -14 5 -7 10 16 14 58 91 123 158
133 20 3 41 9 46 14 6 4 34 9 63 10 35 2 52 7 52 16 0 20 -157 18 -199 -3 -26
-13 -38 -14 -57 -5 -21 9 -24 17 -23 63 1 80 7 89 80 109 127 36 277 16 354
-46 53 -43 75 -110 76 -231 0 -49 4 -98 9 -109 5 -12 6 16 3 66 -4 64 -2 98
10 133 17 49 92 146 113 146 7 0 19 6 26 13 22 22 145 50 191 44 74 -11 139
-33 154 -53 9 -13 13 -41 11 -89 -3 -59 -6 -70 -22 -73 -19 -4 -86 27 -86 40
0 5 -27 8 -61 8 -65 0 -87 -14 -110 -69 -11 -27 -1 -141 11 -122 4 8 53 11
156 9 l149 -3 6 -80 c4 -54 6 -14 8 125 1 113 5 223 9 245 l7 40 85 3 c70 2
87 0 97 -14 11 -15 15 -15 45 -1 84 38 102 41 154 22 27 -10 54 -23 59 -29 34
-37 44 -39 77 -14 35 26 113 58 140 58 22 0 91 -32 109 -50 34 -35 49 -67 49
-106 0 -25 5 -44 13 -46 7 -3 14 -32 17 -78 l5 -74 35 1 c19 0 38 -5 42 -11 4
-6 8 53 8 131 0 78 -4 144 -9 148 -6 3 -13 27 -17 53 -3 26 -10 52 -14 57 -4
6 -10 24 -13 42 -6 31 -45 116 -93 202 -55 101 -159 218 -267 303 -78 62 -245
149 -332 174 -33 9 -71 21 -85 27 -30 14 -412 19 -455 7z"/>
<path d="M2638 3073 c7 -3 16 -2 19 1 4 3 -2 6 -13 5 -11 0 -14 -3 -6 -6z"/>
<path d="M1110 3048 c0 -5 -7 -8 -15 -8 -8 0 -15 -9 -15 -20 0 -11 4 -20 9
-20 5 0 13 9 16 20 6 17 15 20 76 20 39 0 69 -4 69 -10 0 -5 7 -10 15 -10 8 0
15 5 15 10 0 6 11 10 25 10 14 0 25 3 25 8 0 4 -50 7 -110 7 -61 0 -110 -3
-110 -7z"/>
<path d="M2680 3048 c0 -5 14 -8 31 -8 17 0 28 -4 24 -10 -3 -5 1 -10 9 -10 9
0 16 -7 16 -15 0 -8 7 -15 15 -15 8 0 15 -9 15 -20 0 -13 7 -20 20 -20 11 0
20 -4 20 -10 0 -5 16 -20 35 -32 19 -13 38 -31 41 -41 3 -10 15 -28 27 -41 42
-44 92 -108 106 -135 8 -14 17 -28 21 -31 4 -3 11 -16 15 -30 4 -14 11 -27 14
-30 16 -12 71 -132 71 -155 0 -14 4 -25 10 -25 5 0 12 -17 15 -37 4 -21 11
-49 17 -63 40 -99 51 -404 19 -550 -40 -181 -66 -244 -103 -254 -43 -11 -105
-6 -118 9 -19 22 -1955 22 -1984 0 -22 -17 -92 -20 -129 -6 -15 6 -29 24 -39
53 -8 23 -20 59 -27 78 -27 72 -50 237 -51 351 0 148 33 341 71 411 5 10 9 29
9 42 0 14 6 31 13 38 7 7 22 34 33 60 10 27 22 48 26 48 3 0 9 14 13 30 4 17
11 30 16 30 5 0 14 11 19 24 9 25 25 46 92 120 21 22 38 46 38 53 0 13 93 93
109 93 6 0 11 9 11 20 0 11 7 20 15 20 8 0 15 7 15 15 0 19 -7 19 -28 -1 -13
-13 -31 -15 -93 -12 -43 3 -76 1 -73 -4 3 -4 1 -8 -5 -8 -6 0 -24 -13 -41 -30
-17 -16 -32 -30 -34 -30 -2 0 -47 -43 -101 -95 -53 -52 -98 -95 -99 -95 -8 0
-736 -727 -736 -735 0 -6 97 -109 216 -228 142 -144 214 -223 212 -235 -3 -15
-23 -18 -173 -22 l-170 -5 -3 -452 c-2 -400 0 -453 14 -467 14 -14 86 -16 662
-16 l646 0 276 -275 c151 -151 282 -275 290 -275 9 0 138 124 288 275 l273
275 652 0 c574 0 655 2 675 16 l22 15 0 442 c0 243 -4 448 -8 454 -6 9 -59 13
-187 15 -151 3 -180 5 -182 18 -2 8 94 113 212 233 118 120 215 224 215 231 0
7 -72 84 -160 172 -252 249 -654 644 -657 644 -1 0 -34 32 -73 70 -39 39 -73
70 -75 70 -7 0 -44 38 -47 48 -2 4 -7 5 -13 2 -5 -2 -39 -6 -75 -8 -54 -3 -69
0 -88 16 -12 11 -22 22 -22 26 0 3 31 6 69 6 61 0 70 -3 76 -20 3 -11 11 -20
16 -20 5 0 9 9 9 20 0 11 -7 20 -15 20 -8 0 -15 3 -15 8 0 4 -49 7 -110 7 -60
0 -110 -3 -110 -7z m-1403 -1739 c44 -9 54 -15 59 -35 8 -33 -7 -49 -33 -36
-36 19 -136 32 -178 22 -47 -10 -95 -59 -95 -94 0 -35 44 -82 82 -90 133 -25
201 -56 233 -106 40 -64 29 -166 -24 -208 -69 -55 -199 -69 -301 -33 -49 17
-55 23 -58 50 -4 37 -3 37 68 11 99 -37 206 -25 245 26 21 28 19 107 -2 126
-25 22 -81 44 -134 53 -24 4 -50 11 -59 15 -62 29 -77 39 -97 69 -41 61 -23
158 38 202 18 12 55 28 83 35 51 12 76 11 173 -7z m818 7 c76 -16 122 -40 130
-67 12 -35 -8 -43 -55 -20 -141 68 -284 38 -343 -72 -19 -36 -22 -57 -22 -142
0 -86 3 -105 23 -140 45 -76 101 -105 206 -105 53 0 79 5 104 20 31 19 32 21
32 94 0 84 -2 86 -81 86 -46 0 -49 2 -49 25 l0 26 98 -3 97 -3 3 -114 c3 -133
1 -138 -88 -171 -48 -18 -74 -21 -142 -18 -174 8 -265 96 -284 273 -7 71 15
172 49 222 34 51 100 93 170 108 78 17 80 17 152 1z m-520 -301 l0 -290 -24
-3 c-13 -2 -28 2 -32 10 -10 16 -12 562 -2 572 4 4 19 6 33 4 l25 -3 0 -290z
m1069 279 c9 -8 16 -21 16 -29 0 -7 6 -26 14 -42 8 -15 21 -46 29 -68 8 -22
29 -78 47 -125 17 -47 35 -93 41 -102 5 -10 9 -23 9 -29 0 -6 7 -27 16 -47 9
-21 22 -52 30 -70 22 -52 19 -64 -17 -60 -18 2 -35 10 -40 18 -17 34 -39 89
-39 98 0 6 -7 18 -16 26 -12 13 -40 16 -139 16 -118 0 -123 -1 -138 -24 -9
-13 -19 -37 -23 -52 -13 -55 -36 -84 -67 -84 -28 0 -29 2 -23 32 6 29 47 141
83 225 7 17 13 37 13 45 0 8 4 18 8 23 5 6 19 39 32 75 13 36 26 70 30 75 4 6
10 23 14 39 13 52 35 76 71 76 19 0 41 -7 49 -16z m390 0 c3 -9 6 -134 6 -279
0 -145 -3 -270 -6 -279 -8 -21 -50 -21 -58 0 -8 21 -8 559 1 567 12 13 51 7
57 -9z"/>
<path d="M2575 1185 c-18 -42 -72 -186 -82 -219 -9 -28 14 -36 103 -36 120 0
121 2 71 136 -23 61 -49 121 -59 135 l-16 24 -17 -40z"/>
<path d="M2353 2093 c-9 -3 -13 -26 -12 -66 0 -67 16 -165 18 -114 1 24 5 27
35 27 31 0 34 -3 43 -42 9 -38 11 -28 12 73 1 113 0 117 -21 123 -27 7 -58 7
-75 -1z"/>
<path d="M2667 2086 c-17 -17 -16 -36 4 -117 8 -33 11 -35 43 -31 l35 4 3 -48
c2 -31 6 -5 11 69 5 66 6 121 4 124 -3 2 -23 7 -44 10 -29 4 -44 1 -56 -11z"/>
<path d="M1315 1910 c0 -22 3 -40 8 -40 4 0 7 18 7 40 0 22 -4 40 -8 40 -4 0
-8 -18 -7 -40z"/>
<path d="M1248 1913 c6 -2 18 -2 25 0 6 3 1 5 -13 5 -14 0 -19 -2 -12 -5z"/>
<path d="M1858 1873 c7 -3 16 -2 19 1 4 3 -2 6 -13 5 -11 0 -14 -3 -6 -6z"/>
<path d="M1938 1873 c6 -2 18 -2 25 0 6 3 1 5 -13 5 -14 0 -19 -2 -12 -5z"/>
</g>
</svg>
